<mxfile host="app.diagrams.net" modified="2023-12-16T04:58:22.587Z" agent="Mozilla/5.0 (Windows NT 10.0; Win64; x64) AppleWebKit/537.36 (KHTML, like Gecko) Chrome/118.0.0.0 Safari/537.36 OPR/104.0.0.0" etag="gdDRMhDM-km31lrX56gm" version="22.1.11" type="github">
  <diagram name="PÃ¡gina-1" id="OzA9h-8FNT0asoqhPJbX">
    <mxGraphModel dx="4076" dy="1560" grid="1" gridSize="10" guides="1" tooltips="1" connect="1" arrows="1" fold="1" page="1" pageScale="1" pageWidth="827" pageHeight="1169" math="0" shadow="0">
      <root>
        <mxCell id="0" />
        <mxCell id="1" parent="0" />
        <mxCell id="4miIxBctBiILL3JAYqLI-9" value="SensorBalanca" style="swimlane;fontStyle=1;align=center;verticalAlign=top;childLayout=stackLayout;horizontal=1;startSize=26;horizontalStack=0;resizeParent=1;resizeParentMax=0;resizeLast=0;collapsible=1;marginBottom=0;whiteSpace=wrap;html=1;" vertex="1" parent="1">
          <mxGeometry x="200" y="800" width="222.5" height="86" as="geometry" />
        </mxCell>
        <mxCell id="4miIxBctBiILL3JAYqLI-64" value="+ capacidadeMax: double" style="text;strokeColor=none;fillColor=none;align=left;verticalAlign=top;spacingLeft=4;spacingRight=4;overflow=hidden;rotatable=0;points=[[0,0.5],[1,0.5]];portConstraint=eastwest;whiteSpace=wrap;html=1;fontSize=16;" vertex="1" parent="4miIxBctBiILL3JAYqLI-9">
          <mxGeometry y="26" width="222.5" height="26" as="geometry" />
        </mxCell>
        <mxCell id="4miIxBctBiILL3JAYqLI-11" value="" style="line;strokeWidth=1;fillColor=none;align=left;verticalAlign=middle;spacingTop=-1;spacingLeft=3;spacingRight=3;rotatable=0;labelPosition=right;points=[];portConstraint=eastwest;strokeColor=inherit;" vertex="1" parent="4miIxBctBiILL3JAYqLI-9">
          <mxGeometry y="52" width="222.5" height="8" as="geometry" />
        </mxCell>
        <mxCell id="4miIxBctBiILL3JAYqLI-65" value="+ coletarDados()" style="text;strokeColor=none;fillColor=none;align=left;verticalAlign=top;spacingLeft=4;spacingRight=4;overflow=hidden;rotatable=0;points=[[0,0.5],[1,0.5]];portConstraint=eastwest;whiteSpace=wrap;html=1;fontSize=16;" vertex="1" parent="4miIxBctBiILL3JAYqLI-9">
          <mxGeometry y="60" width="222.5" height="26" as="geometry" />
        </mxCell>
        <mxCell id="4miIxBctBiILL3JAYqLI-13" value="SensorMaquinaFotografica" style="swimlane;fontStyle=1;align=center;verticalAlign=top;childLayout=stackLayout;horizontal=1;startSize=26;horizontalStack=0;resizeParent=1;resizeParentMax=0;resizeLast=0;collapsible=1;marginBottom=0;whiteSpace=wrap;html=1;" vertex="1" parent="1">
          <mxGeometry x="452.5" y="800" width="160" height="86" as="geometry" />
        </mxCell>
        <mxCell id="4miIxBctBiILL3JAYqLI-68" value="+ resolucao: String" style="text;strokeColor=none;fillColor=none;align=left;verticalAlign=top;spacingLeft=4;spacingRight=4;overflow=hidden;rotatable=0;points=[[0,0.5],[1,0.5]];portConstraint=eastwest;whiteSpace=wrap;html=1;fontSize=16;" vertex="1" parent="4miIxBctBiILL3JAYqLI-13">
          <mxGeometry y="26" width="160" height="26" as="geometry" />
        </mxCell>
        <mxCell id="4miIxBctBiILL3JAYqLI-15" value="" style="line;strokeWidth=1;fillColor=none;align=left;verticalAlign=middle;spacingTop=-1;spacingLeft=3;spacingRight=3;rotatable=0;labelPosition=right;points=[];portConstraint=eastwest;strokeColor=inherit;" vertex="1" parent="4miIxBctBiILL3JAYqLI-13">
          <mxGeometry y="52" width="160" height="8" as="geometry" />
        </mxCell>
        <mxCell id="4miIxBctBiILL3JAYqLI-66" value="+ coletarDados()" style="text;strokeColor=none;fillColor=none;align=left;verticalAlign=top;spacingLeft=4;spacingRight=4;overflow=hidden;rotatable=0;points=[[0,0.5],[1,0.5]];portConstraint=eastwest;whiteSpace=wrap;html=1;fontSize=16;" vertex="1" parent="4miIxBctBiILL3JAYqLI-13">
          <mxGeometry y="60" width="160" height="26" as="geometry" />
        </mxCell>
        <mxCell id="4miIxBctBiILL3JAYqLI-17" value="Banana" style="swimlane;fontStyle=1;align=center;verticalAlign=top;childLayout=stackLayout;horizontal=1;startSize=26;horizontalStack=0;resizeParent=1;resizeParentMax=0;resizeLast=0;collapsible=1;marginBottom=0;whiteSpace=wrap;html=1;" vertex="1" parent="1">
          <mxGeometry x="190" y="190" width="190" height="138" as="geometry" />
        </mxCell>
        <mxCell id="4miIxBctBiILL3JAYqLI-48" value="+ id: int" style="text;strokeColor=none;fillColor=none;align=left;verticalAlign=top;spacingLeft=4;spacingRight=4;overflow=hidden;rotatable=0;points=[[0,0.5],[1,0.5]];portConstraint=eastwest;whiteSpace=wrap;html=1;fontSize=16;" vertex="1" parent="4miIxBctBiILL3JAYqLI-17">
          <mxGeometry y="26" width="190" height="26" as="geometry" />
        </mxCell>
        <mxCell id="4miIxBctBiILL3JAYqLI-49" value="+ nome: String" style="text;strokeColor=none;fillColor=none;align=left;verticalAlign=top;spacingLeft=4;spacingRight=4;overflow=hidden;rotatable=0;points=[[0,0.5],[1,0.5]];portConstraint=eastwest;whiteSpace=wrap;html=1;fontSize=16;" vertex="1" parent="4miIxBctBiILL3JAYqLI-17">
          <mxGeometry y="52" width="190" height="26" as="geometry" />
        </mxCell>
        <mxCell id="4miIxBctBiILL3JAYqLI-50" value="+ cor: String" style="text;strokeColor=none;fillColor=none;align=left;verticalAlign=top;spacingLeft=4;spacingRight=4;overflow=hidden;rotatable=0;points=[[0,0.5],[1,0.5]];portConstraint=eastwest;whiteSpace=wrap;html=1;fontSize=16;" vertex="1" parent="4miIxBctBiILL3JAYqLI-17">
          <mxGeometry y="78" width="190" height="26" as="geometry" />
        </mxCell>
        <mxCell id="4miIxBctBiILL3JAYqLI-51" value="+ comprimento: double" style="text;strokeColor=none;fillColor=none;align=left;verticalAlign=top;spacingLeft=4;spacingRight=4;overflow=hidden;rotatable=0;points=[[0,0.5],[1,0.5]];portConstraint=eastwest;whiteSpace=wrap;html=1;fontSize=16;" vertex="1" parent="4miIxBctBiILL3JAYqLI-17">
          <mxGeometry y="104" width="190" height="26" as="geometry" />
        </mxCell>
        <mxCell id="4miIxBctBiILL3JAYqLI-19" value="" style="line;strokeWidth=1;fillColor=none;align=left;verticalAlign=middle;spacingTop=-1;spacingLeft=3;spacingRight=3;rotatable=0;labelPosition=right;points=[];portConstraint=eastwest;strokeColor=inherit;" vertex="1" parent="4miIxBctBiILL3JAYqLI-17">
          <mxGeometry y="130" width="190" height="8" as="geometry" />
        </mxCell>
        <mxCell id="4miIxBctBiILL3JAYqLI-21" value="Maca" style="swimlane;fontStyle=1;align=center;verticalAlign=top;childLayout=stackLayout;horizontal=1;startSize=26;horizontalStack=0;resizeParent=1;resizeParentMax=0;resizeLast=0;collapsible=1;marginBottom=0;whiteSpace=wrap;html=1;" vertex="1" parent="1">
          <mxGeometry x="410" y="190" width="160" height="138" as="geometry" />
        </mxCell>
        <mxCell id="4miIxBctBiILL3JAYqLI-52" value="+ id: int" style="text;strokeColor=none;fillColor=none;align=left;verticalAlign=top;spacingLeft=4;spacingRight=4;overflow=hidden;rotatable=0;points=[[0,0.5],[1,0.5]];portConstraint=eastwest;whiteSpace=wrap;html=1;fontSize=16;" vertex="1" parent="4miIxBctBiILL3JAYqLI-21">
          <mxGeometry y="26" width="160" height="26" as="geometry" />
        </mxCell>
        <mxCell id="4miIxBctBiILL3JAYqLI-53" value="+ nome: String" style="text;strokeColor=none;fillColor=none;align=left;verticalAlign=top;spacingLeft=4;spacingRight=4;overflow=hidden;rotatable=0;points=[[0,0.5],[1,0.5]];portConstraint=eastwest;whiteSpace=wrap;html=1;fontSize=16;" vertex="1" parent="4miIxBctBiILL3JAYqLI-21">
          <mxGeometry y="52" width="160" height="26" as="geometry" />
        </mxCell>
        <mxCell id="4miIxBctBiILL3JAYqLI-54" value="+ cor: String" style="text;strokeColor=none;fillColor=none;align=left;verticalAlign=top;spacingLeft=4;spacingRight=4;overflow=hidden;rotatable=0;points=[[0,0.5],[1,0.5]];portConstraint=eastwest;whiteSpace=wrap;html=1;fontSize=16;" vertex="1" parent="4miIxBctBiILL3JAYqLI-21">
          <mxGeometry y="78" width="160" height="26" as="geometry" />
        </mxCell>
        <mxCell id="4miIxBctBiILL3JAYqLI-60" value="" style="endArrow=none;html=1;rounded=0;" edge="1" parent="4miIxBctBiILL3JAYqLI-21">
          <mxGeometry width="50" height="50" relative="1" as="geometry">
            <mxPoint x="90" y="248" as="sourcePoint" />
            <mxPoint x="90" y="200" as="targetPoint" />
          </mxGeometry>
        </mxCell>
        <mxCell id="4miIxBctBiILL3JAYqLI-55" value="+ diametro: double" style="text;strokeColor=none;fillColor=none;align=left;verticalAlign=top;spacingLeft=4;spacingRight=4;overflow=hidden;rotatable=0;points=[[0,0.5],[1,0.5]];portConstraint=eastwest;whiteSpace=wrap;html=1;fontSize=16;" vertex="1" parent="4miIxBctBiILL3JAYqLI-21">
          <mxGeometry y="104" width="160" height="26" as="geometry" />
        </mxCell>
        <mxCell id="4miIxBctBiILL3JAYqLI-23" value="" style="line;strokeWidth=1;fillColor=none;align=left;verticalAlign=middle;spacingTop=-1;spacingLeft=3;spacingRight=3;rotatable=0;labelPosition=right;points=[];portConstraint=eastwest;strokeColor=inherit;" vertex="1" parent="4miIxBctBiILL3JAYqLI-21">
          <mxGeometry y="130" width="160" height="8" as="geometry" />
        </mxCell>
        <mxCell id="4miIxBctBiILL3JAYqLI-25" value="Uva" style="swimlane;fontStyle=1;align=center;verticalAlign=top;childLayout=stackLayout;horizontal=1;startSize=26;horizontalStack=0;resizeParent=1;resizeParentMax=0;resizeLast=0;collapsible=1;marginBottom=0;whiteSpace=wrap;html=1;" vertex="1" parent="1">
          <mxGeometry x="600" y="190" width="160" height="138" as="geometry" />
        </mxCell>
        <mxCell id="4miIxBctBiILL3JAYqLI-56" value="+ id: int" style="text;strokeColor=none;fillColor=none;align=left;verticalAlign=top;spacingLeft=4;spacingRight=4;overflow=hidden;rotatable=0;points=[[0,0.5],[1,0.5]];portConstraint=eastwest;whiteSpace=wrap;html=1;fontSize=16;" vertex="1" parent="4miIxBctBiILL3JAYqLI-25">
          <mxGeometry y="26" width="160" height="26" as="geometry" />
        </mxCell>
        <mxCell id="4miIxBctBiILL3JAYqLI-57" value="+ nome: String" style="text;strokeColor=none;fillColor=none;align=left;verticalAlign=top;spacingLeft=4;spacingRight=4;overflow=hidden;rotatable=0;points=[[0,0.5],[1,0.5]];portConstraint=eastwest;whiteSpace=wrap;html=1;fontSize=16;" vertex="1" parent="4miIxBctBiILL3JAYqLI-25">
          <mxGeometry y="52" width="160" height="26" as="geometry" />
        </mxCell>
        <mxCell id="4miIxBctBiILL3JAYqLI-59" value="+ cor: String" style="text;strokeColor=none;fillColor=none;align=left;verticalAlign=top;spacingLeft=4;spacingRight=4;overflow=hidden;rotatable=0;points=[[0,0.5],[1,0.5]];portConstraint=eastwest;whiteSpace=wrap;html=1;fontSize=16;" vertex="1" parent="4miIxBctBiILL3JAYqLI-25">
          <mxGeometry y="78" width="160" height="26" as="geometry" />
        </mxCell>
        <mxCell id="4miIxBctBiILL3JAYqLI-58" value="+ comSemente: bool" style="text;strokeColor=none;fillColor=none;align=left;verticalAlign=top;spacingLeft=4;spacingRight=4;overflow=hidden;rotatable=0;points=[[0,0.5],[1,0.5]];portConstraint=eastwest;whiteSpace=wrap;html=1;fontSize=16;" vertex="1" parent="4miIxBctBiILL3JAYqLI-25">
          <mxGeometry y="104" width="160" height="26" as="geometry" />
        </mxCell>
        <mxCell id="4miIxBctBiILL3JAYqLI-27" value="" style="line;strokeWidth=1;fillColor=none;align=left;verticalAlign=middle;spacingTop=-1;spacingLeft=3;spacingRight=3;rotatable=0;labelPosition=right;points=[];portConstraint=eastwest;strokeColor=inherit;" vertex="1" parent="4miIxBctBiILL3JAYqLI-25">
          <mxGeometry y="130" width="160" height="8" as="geometry" />
        </mxCell>
        <mxCell id="4miIxBctBiILL3JAYqLI-34" value="ControleDeQualidadeFrutas" style="swimlane;fontStyle=1;align=center;verticalAlign=top;childLayout=stackLayout;horizontal=1;startSize=26;horizontalStack=0;resizeParent=1;resizeParentMax=0;resizeLast=0;collapsible=1;marginBottom=0;whiteSpace=wrap;html=1;fontSize=16;" vertex="1" parent="1">
          <mxGeometry x="312.5" y="440" width="375" height="268" as="geometry" />
        </mxCell>
        <mxCell id="4miIxBctBiILL3JAYqLI-35" value="+ sensores: List&amp;lt;Sensor&amp;gt;" style="text;strokeColor=none;fillColor=none;align=left;verticalAlign=top;spacingLeft=4;spacingRight=4;overflow=hidden;rotatable=0;points=[[0,0.5],[1,0.5]];portConstraint=eastwest;whiteSpace=wrap;html=1;fontSize=16;" vertex="1" parent="4miIxBctBiILL3JAYqLI-34">
          <mxGeometry y="26" width="375" height="26" as="geometry" />
        </mxCell>
        <mxCell id="4miIxBctBiILL3JAYqLI-36" value="+ regras: List&amp;lt;Regras&amp;gt;" style="text;strokeColor=none;fillColor=none;align=left;verticalAlign=top;spacingLeft=4;spacingRight=4;overflow=hidden;rotatable=0;points=[[0,0.5],[1,0.5]];portConstraint=eastwest;whiteSpace=wrap;html=1;fontSize=16;" vertex="1" parent="4miIxBctBiILL3JAYqLI-34">
          <mxGeometry y="52" width="375" height="26" as="geometry" />
        </mxCell>
        <mxCell id="4miIxBctBiILL3JAYqLI-37" value="+ fruta: Produto" style="text;strokeColor=none;fillColor=none;align=left;verticalAlign=top;spacingLeft=4;spacingRight=4;overflow=hidden;rotatable=0;points=[[0,0.5],[1,0.5]];portConstraint=eastwest;whiteSpace=wrap;html=1;fontSize=16;" vertex="1" parent="4miIxBctBiILL3JAYqLI-34">
          <mxGeometry y="78" width="375" height="26" as="geometry" />
        </mxCell>
        <mxCell id="4miIxBctBiILL3JAYqLI-38" value="" style="line;strokeWidth=1;fillColor=none;align=left;verticalAlign=middle;spacingTop=-1;spacingLeft=3;spacingRight=3;rotatable=0;labelPosition=right;points=[];portConstraint=eastwest;strokeColor=inherit;fontSize=16;" vertex="1" parent="4miIxBctBiILL3JAYqLI-34">
          <mxGeometry y="104" width="375" height="8" as="geometry" />
        </mxCell>
        <mxCell id="4miIxBctBiILL3JAYqLI-39" value="+ adicionarSensor(sensor: Sensor)" style="text;strokeColor=none;fillColor=none;align=left;verticalAlign=top;spacingLeft=4;spacingRight=4;overflow=hidden;rotatable=0;points=[[0,0.5],[1,0.5]];portConstraint=eastwest;whiteSpace=wrap;html=1;fontSize=16;" vertex="1" parent="4miIxBctBiILL3JAYqLI-34">
          <mxGeometry y="112" width="375" height="26" as="geometry" />
        </mxCell>
        <mxCell id="4miIxBctBiILL3JAYqLI-40" value="+ removerSensor(sensor: Sensor)" style="text;strokeColor=none;fillColor=none;align=left;verticalAlign=top;spacingLeft=4;spacingRight=4;overflow=hidden;rotatable=0;points=[[0,0.5],[1,0.5]];portConstraint=eastwest;whiteSpace=wrap;html=1;fontSize=16;" vertex="1" parent="4miIxBctBiILL3JAYqLI-34">
          <mxGeometry y="138" width="375" height="26" as="geometry" />
        </mxCell>
        <mxCell id="4miIxBctBiILL3JAYqLI-41" value="+ adicionarRegra(regra: Regra)" style="text;strokeColor=none;fillColor=none;align=left;verticalAlign=top;spacingLeft=4;spacingRight=4;overflow=hidden;rotatable=0;points=[[0,0.5],[1,0.5]];portConstraint=eastwest;whiteSpace=wrap;html=1;fontSize=16;" vertex="1" parent="4miIxBctBiILL3JAYqLI-34">
          <mxGeometry y="164" width="375" height="26" as="geometry" />
        </mxCell>
        <mxCell id="4miIxBctBiILL3JAYqLI-42" value="+ removerRegra(regra: Regra)" style="text;strokeColor=none;fillColor=none;align=left;verticalAlign=top;spacingLeft=4;spacingRight=4;overflow=hidden;rotatable=0;points=[[0,0.5],[1,0.5]];portConstraint=eastwest;whiteSpace=wrap;html=1;fontSize=16;" vertex="1" parent="4miIxBctBiILL3JAYqLI-34">
          <mxGeometry y="190" width="375" height="26" as="geometry" />
        </mxCell>
        <mxCell id="4miIxBctBiILL3JAYqLI-43" value="+ definirProduto(fruta: Produto)" style="text;strokeColor=none;fillColor=none;align=left;verticalAlign=top;spacingLeft=4;spacingRight=4;overflow=hidden;rotatable=0;points=[[0,0.5],[1,0.5]];portConstraint=eastwest;whiteSpace=wrap;html=1;fontSize=16;" vertex="1" parent="4miIxBctBiILL3JAYqLI-34">
          <mxGeometry y="216" width="375" height="26" as="geometry" />
        </mxCell>
        <mxCell id="4miIxBctBiILL3JAYqLI-44" value="+ executaControleDeQualidade(): float" style="text;strokeColor=none;fillColor=none;align=left;verticalAlign=top;spacingLeft=4;spacingRight=4;overflow=hidden;rotatable=0;points=[[0,0.5],[1,0.5]];portConstraint=eastwest;whiteSpace=wrap;html=1;fontSize=16;" vertex="1" parent="4miIxBctBiILL3JAYqLI-34">
          <mxGeometry y="242" width="375" height="26" as="geometry" />
        </mxCell>
        <mxCell id="4miIxBctBiILL3JAYqLI-45" value="SensorRaioX" style="swimlane;fontStyle=1;align=center;verticalAlign=top;childLayout=stackLayout;horizontal=1;startSize=26;horizontalStack=0;resizeParent=1;resizeParentMax=0;resizeLast=0;collapsible=1;marginBottom=0;whiteSpace=wrap;html=1;" vertex="1" parent="1">
          <mxGeometry x="640" y="800" width="160" height="86" as="geometry" />
        </mxCell>
        <mxCell id="4miIxBctBiILL3JAYqLI-69" value="+ precisao: double" style="text;strokeColor=none;fillColor=none;align=left;verticalAlign=top;spacingLeft=4;spacingRight=4;overflow=hidden;rotatable=0;points=[[0,0.5],[1,0.5]];portConstraint=eastwest;whiteSpace=wrap;html=1;fontSize=16;" vertex="1" parent="4miIxBctBiILL3JAYqLI-45">
          <mxGeometry y="26" width="160" height="26" as="geometry" />
        </mxCell>
        <mxCell id="4miIxBctBiILL3JAYqLI-46" value="" style="line;strokeWidth=1;fillColor=none;align=left;verticalAlign=middle;spacingTop=-1;spacingLeft=3;spacingRight=3;rotatable=0;labelPosition=right;points=[];portConstraint=eastwest;strokeColor=inherit;" vertex="1" parent="4miIxBctBiILL3JAYqLI-45">
          <mxGeometry y="52" width="160" height="8" as="geometry" />
        </mxCell>
        <mxCell id="4miIxBctBiILL3JAYqLI-67" value="+ coletarDados()" style="text;strokeColor=none;fillColor=none;align=left;verticalAlign=top;spacingLeft=4;spacingRight=4;overflow=hidden;rotatable=0;points=[[0,0.5],[1,0.5]];portConstraint=eastwest;whiteSpace=wrap;html=1;fontSize=16;" vertex="1" parent="4miIxBctBiILL3JAYqLI-45">
          <mxGeometry y="60" width="160" height="26" as="geometry" />
        </mxCell>
        <mxCell id="4miIxBctBiILL3JAYqLI-61" value="" style="endArrow=none;html=1;rounded=0;entryX=0.5;entryY=1;entryDx=0;entryDy=0;" edge="1" parent="1" target="4miIxBctBiILL3JAYqLI-17">
          <mxGeometry width="50" height="50" relative="1" as="geometry">
            <mxPoint x="500" y="390" as="sourcePoint" />
            <mxPoint x="510" y="390" as="targetPoint" />
            <Array as="points">
              <mxPoint x="285" y="390" />
            </Array>
          </mxGeometry>
        </mxCell>
        <mxCell id="4miIxBctBiILL3JAYqLI-62" value="" style="endArrow=none;html=1;rounded=0;entryX=0.5;entryY=1;entryDx=0;entryDy=0;" edge="1" parent="1" target="4miIxBctBiILL3JAYqLI-25">
          <mxGeometry width="50" height="50" relative="1" as="geometry">
            <mxPoint x="500" y="390" as="sourcePoint" />
            <mxPoint x="550" y="580" as="targetPoint" />
            <Array as="points">
              <mxPoint x="680" y="390" />
            </Array>
          </mxGeometry>
        </mxCell>
        <mxCell id="4miIxBctBiILL3JAYqLI-63" value="" style="endArrow=none;html=1;rounded=0;" edge="1" parent="1">
          <mxGeometry width="50" height="50" relative="1" as="geometry">
            <mxPoint x="500" y="400" as="sourcePoint" />
            <mxPoint x="500" y="330" as="targetPoint" />
          </mxGeometry>
        </mxCell>
        <mxCell id="4miIxBctBiILL3JAYqLI-72" value="ControladorPeso" style="swimlane;fontStyle=1;align=center;verticalAlign=top;childLayout=stackLayout;horizontal=1;startSize=26;horizontalStack=0;resizeParent=1;resizeParentMax=0;resizeLast=0;collapsible=1;marginBottom=0;whiteSpace=wrap;html=1;" vertex="1" parent="1">
          <mxGeometry x="-130" y="380" width="222.5" height="112" as="geometry" />
        </mxCell>
        <mxCell id="4miIxBctBiILL3JAYqLI-73" value="+ pesoMaximo: double" style="text;strokeColor=none;fillColor=none;align=left;verticalAlign=top;spacingLeft=4;spacingRight=4;overflow=hidden;rotatable=0;points=[[0,0.5],[1,0.5]];portConstraint=eastwest;whiteSpace=wrap;html=1;fontSize=16;" vertex="1" parent="4miIxBctBiILL3JAYqLI-72">
          <mxGeometry y="26" width="222.5" height="26" as="geometry" />
        </mxCell>
        <mxCell id="4miIxBctBiILL3JAYqLI-87" value="+ pesoMinimo: double" style="text;strokeColor=none;fillColor=none;align=left;verticalAlign=top;spacingLeft=4;spacingRight=4;overflow=hidden;rotatable=0;points=[[0,0.5],[1,0.5]];portConstraint=eastwest;whiteSpace=wrap;html=1;fontSize=16;" vertex="1" parent="4miIxBctBiILL3JAYqLI-72">
          <mxGeometry y="52" width="222.5" height="26" as="geometry" />
        </mxCell>
        <mxCell id="4miIxBctBiILL3JAYqLI-74" value="" style="line;strokeWidth=1;fillColor=none;align=left;verticalAlign=middle;spacingTop=-1;spacingLeft=3;spacingRight=3;rotatable=0;labelPosition=right;points=[];portConstraint=eastwest;strokeColor=inherit;" vertex="1" parent="4miIxBctBiILL3JAYqLI-72">
          <mxGeometry y="78" width="222.5" height="8" as="geometry" />
        </mxCell>
        <mxCell id="4miIxBctBiILL3JAYqLI-75" value="+ avaliarDados()" style="text;strokeColor=none;fillColor=none;align=left;verticalAlign=top;spacingLeft=4;spacingRight=4;overflow=hidden;rotatable=0;points=[[0,0.5],[1,0.5]];portConstraint=eastwest;whiteSpace=wrap;html=1;fontSize=16;" vertex="1" parent="4miIxBctBiILL3JAYqLI-72">
          <mxGeometry y="86" width="222.5" height="26" as="geometry" />
        </mxCell>
        <mxCell id="4miIxBctBiILL3JAYqLI-76" value="" style="endArrow=none;html=1;rounded=0;exitX=0.5;exitY=0;exitDx=0;exitDy=0;" edge="1" parent="1" source="4miIxBctBiILL3JAYqLI-9">
          <mxGeometry width="50" height="50" relative="1" as="geometry">
            <mxPoint x="450" y="770" as="sourcePoint" />
            <mxPoint x="500" y="710" as="targetPoint" />
            <Array as="points">
              <mxPoint x="311" y="760" />
              <mxPoint x="500" y="760" />
            </Array>
          </mxGeometry>
        </mxCell>
        <mxCell id="4miIxBctBiILL3JAYqLI-77" value="" style="endArrow=none;html=1;rounded=0;entryX=0.5;entryY=0;entryDx=0;entryDy=0;" edge="1" parent="1" target="4miIxBctBiILL3JAYqLI-45">
          <mxGeometry width="50" height="50" relative="1" as="geometry">
            <mxPoint x="500" y="760" as="sourcePoint" />
            <mxPoint x="580" y="730" as="targetPoint" />
            <Array as="points">
              <mxPoint x="720" y="760" />
            </Array>
          </mxGeometry>
        </mxCell>
        <mxCell id="4miIxBctBiILL3JAYqLI-78" value="" style="endArrow=none;html=1;rounded=0;" edge="1" parent="1">
          <mxGeometry width="50" height="50" relative="1" as="geometry">
            <mxPoint x="499.995221238938" y="800" as="sourcePoint" />
            <mxPoint x="500" y="760" as="targetPoint" />
          </mxGeometry>
        </mxCell>
        <mxCell id="4miIxBctBiILL3JAYqLI-79" value="ControladorTextura" style="swimlane;fontStyle=1;align=center;verticalAlign=top;childLayout=stackLayout;horizontal=1;startSize=26;horizontalStack=0;resizeParent=1;resizeParentMax=0;resizeLast=0;collapsible=1;marginBottom=0;whiteSpace=wrap;html=1;" vertex="1" parent="1">
          <mxGeometry x="-197.5" y="518" width="290" height="112" as="geometry" />
        </mxCell>
        <mxCell id="4miIxBctBiILL3JAYqLI-80" value="+ texturasAceitaveis: List&amp;lt;String&amp;gt;" style="text;strokeColor=none;fillColor=none;align=left;verticalAlign=top;spacingLeft=4;spacingRight=4;overflow=hidden;rotatable=0;points=[[0,0.5],[1,0.5]];portConstraint=eastwest;whiteSpace=wrap;html=1;fontSize=16;" vertex="1" parent="4miIxBctBiILL3JAYqLI-79">
          <mxGeometry y="26" width="290" height="26" as="geometry" />
        </mxCell>
        <mxCell id="4miIxBctBiILL3JAYqLI-90" value="+ texturasNaoAceitaveis: List&amp;lt;String&amp;gt;" style="text;strokeColor=none;fillColor=none;align=left;verticalAlign=top;spacingLeft=4;spacingRight=4;overflow=hidden;rotatable=0;points=[[0,0.5],[1,0.5]];portConstraint=eastwest;whiteSpace=wrap;html=1;fontSize=16;" vertex="1" parent="4miIxBctBiILL3JAYqLI-79">
          <mxGeometry y="52" width="290" height="26" as="geometry" />
        </mxCell>
        <mxCell id="4miIxBctBiILL3JAYqLI-81" value="" style="line;strokeWidth=1;fillColor=none;align=left;verticalAlign=middle;spacingTop=-1;spacingLeft=3;spacingRight=3;rotatable=0;labelPosition=right;points=[];portConstraint=eastwest;strokeColor=inherit;" vertex="1" parent="4miIxBctBiILL3JAYqLI-79">
          <mxGeometry y="78" width="290" height="8" as="geometry" />
        </mxCell>
        <mxCell id="4miIxBctBiILL3JAYqLI-88" value="+ avaliarDados()" style="text;strokeColor=none;fillColor=none;align=left;verticalAlign=top;spacingLeft=4;spacingRight=4;overflow=hidden;rotatable=0;points=[[0,0.5],[1,0.5]];portConstraint=eastwest;whiteSpace=wrap;html=1;fontSize=16;" vertex="1" parent="4miIxBctBiILL3JAYqLI-79">
          <mxGeometry y="86" width="290" height="26" as="geometry" />
        </mxCell>
        <mxCell id="4miIxBctBiILL3JAYqLI-83" value="ControladorEstrutura" style="swimlane;fontStyle=1;align=center;verticalAlign=top;childLayout=stackLayout;horizontal=1;startSize=26;horizontalStack=0;resizeParent=1;resizeParentMax=0;resizeLast=0;collapsible=1;marginBottom=0;whiteSpace=wrap;html=1;" vertex="1" parent="1">
          <mxGeometry x="-200" y="660" width="292.5" height="112" as="geometry" />
        </mxCell>
        <mxCell id="4miIxBctBiILL3JAYqLI-91" value="+ estruturasAceitaveis: List&amp;lt;String&amp;gt;" style="text;strokeColor=none;fillColor=none;align=left;verticalAlign=top;spacingLeft=4;spacingRight=4;overflow=hidden;rotatable=0;points=[[0,0.5],[1,0.5]];portConstraint=eastwest;whiteSpace=wrap;html=1;fontSize=16;" vertex="1" parent="4miIxBctBiILL3JAYqLI-83">
          <mxGeometry y="26" width="292.5" height="26" as="geometry" />
        </mxCell>
        <mxCell id="4miIxBctBiILL3JAYqLI-92" value="+ estruturasNaoAceitaveis: List&amp;lt;String&amp;gt;" style="text;strokeColor=none;fillColor=none;align=left;verticalAlign=top;spacingLeft=4;spacingRight=4;overflow=hidden;rotatable=0;points=[[0,0.5],[1,0.5]];portConstraint=eastwest;whiteSpace=wrap;html=1;fontSize=16;" vertex="1" parent="4miIxBctBiILL3JAYqLI-83">
          <mxGeometry y="52" width="292.5" height="26" as="geometry" />
        </mxCell>
        <mxCell id="4miIxBctBiILL3JAYqLI-85" value="" style="line;strokeWidth=1;fillColor=none;align=left;verticalAlign=middle;spacingTop=-1;spacingLeft=3;spacingRight=3;rotatable=0;labelPosition=right;points=[];portConstraint=eastwest;strokeColor=inherit;" vertex="1" parent="4miIxBctBiILL3JAYqLI-83">
          <mxGeometry y="78" width="292.5" height="8" as="geometry" />
        </mxCell>
        <mxCell id="4miIxBctBiILL3JAYqLI-89" value="+ avaliarDados()" style="text;strokeColor=none;fillColor=none;align=left;verticalAlign=top;spacingLeft=4;spacingRight=4;overflow=hidden;rotatable=0;points=[[0,0.5],[1,0.5]];portConstraint=eastwest;whiteSpace=wrap;html=1;fontSize=16;" vertex="1" parent="4miIxBctBiILL3JAYqLI-83">
          <mxGeometry y="86" width="292.5" height="26" as="geometry" />
        </mxCell>
        <mxCell id="4miIxBctBiILL3JAYqLI-93" value="" style="endArrow=none;html=1;rounded=0;entryX=1;entryY=0.5;entryDx=0;entryDy=0;exitX=0;exitY=0.5;exitDx=0;exitDy=0;" edge="1" parent="1" source="4miIxBctBiILL3JAYqLI-40" target="4miIxBctBiILL3JAYqLI-87">
          <mxGeometry width="50" height="50" relative="1" as="geometry">
            <mxPoint x="230" y="590" as="sourcePoint" />
            <mxPoint x="280" y="540" as="targetPoint" />
            <Array as="points">
              <mxPoint x="210" y="591" />
              <mxPoint x="210" y="445" />
            </Array>
          </mxGeometry>
        </mxCell>
        <mxCell id="4miIxBctBiILL3JAYqLI-95" value="" style="endArrow=none;html=1;rounded=0;exitX=1;exitY=0.5;exitDx=0;exitDy=0;" edge="1" parent="1" source="4miIxBctBiILL3JAYqLI-92">
          <mxGeometry width="50" height="50" relative="1" as="geometry">
            <mxPoint x="230" y="590" as="sourcePoint" />
            <mxPoint x="210" y="590" as="targetPoint" />
            <Array as="points">
              <mxPoint x="210" y="725" />
            </Array>
          </mxGeometry>
        </mxCell>
        <mxCell id="4miIxBctBiILL3JAYqLI-97" value="" style="endArrow=none;html=1;rounded=0;exitX=0.997;exitY=0.757;exitDx=0;exitDy=0;exitPerimeter=0;" edge="1" parent="1" source="4miIxBctBiILL3JAYqLI-90">
          <mxGeometry width="50" height="50" relative="1" as="geometry">
            <mxPoint x="150" y="650" as="sourcePoint" />
            <mxPoint x="210" y="590" as="targetPoint" />
          </mxGeometry>
        </mxCell>
      </root>
    </mxGraphModel>
  </diagram>
</mxfile>
